<svg id="svg" version="1.1" xmlns="http://www.w3.org/2000/svg" xmlns:xlink="http://www.w3.org/1999/xlink" width="400" height="400" viewBox="0, 0, 400,400"><g id="svgg"><path id="path0" d="M0.000 200.000 L 0.000 400.000 200.000 400.000 L 400.000 400.000 400.000 200.000 L 400.000 0.000 200.000 0.000 L 0.000 0.000 0.000 200.000 M215.234 122.250 C 282.544 135.783,299.975 222.429,242.988 260.208 C 195.587 291.633,131.871 261.925,124.778 205.093 C 118.553 155.226,165.483 112.247,215.234 122.250 M195.117 122.674 C 145.837 126.079,113.086 176.985,130.618 222.927 C 151.613 277.942,225.590 288.323,260.931 241.213 C 299.195 190.206,259.241 118.243,195.117 122.674 M210.948 150.405 C 224.357 152.044,233.136 158.649,236.716 169.792 C 242.301 187.174,235.036 205.431,220.578 210.345 C 219.358 210.760,218.359 211.202,218.359 211.327 C 218.359 211.617,224.064 220.064,232.920 232.887 C 236.732 238.407,239.957 243.200,240.087 243.539 C 240.299 244.091,239.413 244.145,231.605 244.051 L 222.887 243.945 213.023 229.297 C 206.857 220.141,203.244 214.429,203.388 214.063 C 204.084 212.285,203.981 209.370,203.172 208.000 C 202.717 207.228,202.344 206.531,202.344 206.451 C 202.344 206.372,203.296 206.405,204.461 206.525 C 208.217 206.913,210.504 204.785,210.841 200.587 L 211.034 198.175 213.887 197.336 C 226.702 193.565,227.797 172.519,215.478 166.764 C 211.973 165.126,209.042 164.860,194.434 164.851 L 181.250 164.844 181.250 170.712 L 181.250 176.579 173.730 176.473 L 166.211 176.367 166.108 163.184 L 166.005 150.000 186.821 150.000 C 198.791 150.000,209.044 150.172,210.948 150.405 M204.593 171.973 C 207.440 175.011,205.697 178.906,201.492 178.906 C 199.847 178.906,199.522 178.755,198.552 177.539 L 197.461 176.172 193.262 176.172 C 190.952 176.172,189.059 176.304,189.054 176.465 C 189.050 176.626,188.016 177.860,186.756 179.208 L 184.467 181.658 173.292 181.617 L 162.118 181.576 160.798 182.976 C 158.567 185.341,155.170 184.692,153.915 181.661 C 152.219 177.568,157.691 174.277,160.767 177.539 L 162.057 178.906 172.988 178.906 L 183.918 178.906 186.147 176.367 L 188.377 173.828 192.919 173.828 L 197.461 173.828 198.552 172.461 C 199.950 170.709,203.166 170.449,204.593 171.973 M200.684 173.469 C 199.293 174.279,200.086 176.563,201.758 176.563 C 203.403 176.563,204.082 174.841,202.902 173.661 C 202.196 172.955,201.648 172.907,200.684 173.469 M156.242 179.312 C 155.652 180.415,156.118 181.593,157.258 181.879 C 158.420 182.170,159.375 181.461,159.375 180.304 C 159.375 178.533,157.052 177.797,156.242 179.312 M196.303 180.093 C 197.014 180.879,196.976 180.938,193.540 184.390 L 190.055 187.891 178.426 187.891 L 166.797 187.891 166.797 186.719 L 166.797 185.547 177.841 185.547 L 188.886 185.547 191.992 182.422 C 195.473 178.920,195.317 179.005,196.303 180.093 M213.197 187.207 L 213.308 191.406 208.998 191.406 L 204.688 191.406 204.688 189.844 C 204.688 187.234,202.593 187.543,199.383 190.625 L 196.943 192.969 181.870 192.969 L 166.797 192.969 166.797 191.699 L 166.797 190.430 181.351 190.536 L 195.905 190.643 198.233 188.290 C 200.495 186.005,200.620 185.938,202.624 185.938 L 204.688 185.938 204.688 184.362 L 204.688 182.786 208.887 182.897 L 213.086 183.008 213.197 187.207 M148.711 186.914 C 149.623 187.826,150.443 188.281,151.173 188.281 C 152.056 188.281,152.925 188.998,155.674 191.992 L 159.081 195.703 172.443 195.703 L 185.806 195.703 189.836 200.029 C 193.827 204.313,193.858 204.362,193.106 205.114 C 192.355 205.866,192.310 205.835,188.503 201.960 L 184.658 198.047 171.333 198.047 L 158.008 198.046 154.563 194.336 C 150.654 190.125,150.625 190.113,148.998 192.051 C 147.289 194.086,144.641 194.186,142.937 192.279 C 139.256 188.160,144.803 183.006,148.711 186.914 M144.535 188.471 C 143.873 189.269,144.354 190.907,145.341 191.220 C 146.275 191.516,147.656 190.473,147.656 189.471 C 147.656 188.004,145.497 187.312,144.535 188.471 M207.575 196.321 C 207.964 197.334,207.844 201.945,207.408 202.760 C 206.664 204.150,201.833 203.849,200.719 202.344 C 199.895 201.228,199.717 201.172,197.004 201.172 C 194.277 201.172,194.145 201.129,193.906 200.177 C 193.562 198.806,193.775 198.692,196.986 198.527 C 198.536 198.447,199.860 198.228,199.928 198.039 C 200.730 195.812,206.852 194.437,207.575 196.321 M202.555 198.554 C 201.851 199.628,202.087 200.616,203.186 201.204 C 204.265 201.782,205.427 201.280,205.721 200.109 C 206.260 197.959,203.752 196.727,202.555 198.554 M160.823 202.148 L 161.914 203.516 173.243 203.516 L 184.571 203.516 187.280 206.641 C 189.897 209.659,192.969 211.126,192.969 209.357 C 192.969 205.638,200.288 206.544,201.002 210.352 C 201.795 214.579,196.751 216.874,193.705 213.672 C 192.419 212.320,191.992 212.109,190.532 212.109 C 188.911 212.109,188.736 211.986,186.121 208.997 L 183.398 205.885 172.742 205.872 L 162.086 205.859 160.885 207.227 C 158.535 209.903,154.340 208.765,153.685 205.273 C 152.939 201.295,158.277 198.958,160.823 202.148 M156.473 203.348 C 155.293 204.528,155.972 206.250,157.617 206.250 C 159.333 206.250,160.083 203.922,158.619 203.139 C 157.593 202.589,157.193 202.628,156.473 203.348 M181.250 226.341 L 181.250 244.088 173.730 244.016 L 166.211 243.945 166.109 226.270 L 166.008 208.594 173.629 208.594 L 181.250 208.594 181.250 226.341 M195.748 209.622 C 194.005 210.843,195.545 213.444,197.487 212.559 C 198.300 212.189,198.464 211.875,198.364 210.879 C 198.213 209.360,196.973 208.764,195.748 209.622 " stroke="none" fill="#fbfbfb" fill-rule="evenodd"></path><path id="path1" d="M166.406 163.281 L 166.406 176.172 173.828 176.172 L 181.250 176.172 181.250 170.487 L 181.250 164.802 196.582 164.935 C 211.289 165.062,212.010 165.103,214.258 165.936 C 228.284 171.133,227.572 194.135,213.272 197.782 L 211.133 198.328 210.938 200.950 C 210.658 204.707,208.672 206.641,205.093 206.641 C 202.931 206.641,202.158 207.019,203.114 207.611 C 203.908 208.101,204.317 210.804,203.895 212.771 L 203.485 214.685 212.340 227.948 C 217.210 235.243,221.620 241.782,222.141 242.480 L 223.087 243.750 231.465 243.750 C 236.073 243.750,239.844 243.645,239.844 243.516 C 239.844 243.387,236.552 238.509,232.529 232.676 C 222.044 217.476,217.878 211.288,218.031 211.142 C 218.104 211.072,219.570 210.473,221.289 209.810 C 241.911 201.854,244.605 166.945,225.492 155.335 C 218.022 150.797,214.959 150.391,188.230 150.391 L 166.406 150.391 166.406 163.281 M169.629 208.884 L 166.406 209.016 166.406 226.383 L 166.406 243.750 173.828 243.750 L 181.250 243.750 181.250 226.172 L 181.250 208.594 177.051 208.673 C 174.741 208.717,171.401 208.812,169.629 208.884 " stroke="none" fill="#4b5054" fill-rule="evenodd"></path><path id="path2" d="M198.856 172.123 C 198.411 172.689,198.047 173.304,198.047 173.490 C 198.047 173.676,195.894 173.828,193.262 173.829 L 188.477 173.829 186.133 176.553 L 183.789 179.277 172.893 179.287 L 161.997 179.297 160.769 177.876 C 157.930 174.592,152.557 177.356,153.896 181.413 C 154.965 184.654,159.648 185.294,161.142 182.404 L 161.739 181.250 173.227 181.250 L 184.716 181.250 187.182 178.477 L 189.648 175.704 193.750 175.948 C 196.334 176.101,197.909 176.360,198.007 176.647 C 199.251 180.304,205.859 179.195,205.859 175.330 C 205.859 171.593,201.017 169.376,198.856 172.123 M203.047 173.516 C 203.305 173.773,203.516 174.480,203.516 175.086 C 203.516 177.178,200.430 177.469,199.897 175.428 C 199.451 173.724,201.818 172.287,203.047 173.516 M158.984 178.906 C 160.304 180.226,159.664 182.031,157.877 182.031 C 155.832 182.031,155.084 179.885,156.728 178.733 C 157.845 177.951,158.044 177.966,158.984 178.906 M192.116 182.422 L 189.258 185.546 178.001 185.547 L 166.745 185.547 166.869 186.621 L 166.992 187.695 178.491 187.745 L 189.989 187.795 193.365 184.261 C 196.637 180.836,196.720 180.704,196.027 180.012 C 195.074 179.059,195.342 178.894,192.116 182.422 M205.078 184.375 L 205.078 185.938 202.909 185.938 C 200.760 185.938,200.721 185.959,198.570 188.281 L 196.400 190.625 181.599 190.625 L 166.797 190.625 166.797 191.588 L 166.797 192.551 181.543 192.662 C 197.790 192.785,196.727 192.935,199.761 190.079 C 201.429 188.509,201.887 188.281,203.375 188.281 L 205.078 188.281 205.078 189.844 L 205.078 191.406 208.984 191.406 L 212.891 191.406 212.891 187.109 L 212.891 182.813 208.984 182.813 L 205.078 182.813 205.078 184.375 M144.292 185.930 C 140.737 187.364,141.348 192.980,145.093 193.289 C 147.323 193.473,148.315 193.102,149.087 191.795 C 150.254 189.819,151.141 190.216,154.754 194.331 L 158.008 198.036 171.467 198.042 L 184.925 198.047 188.519 201.855 C 191.638 205.161,192.207 205.607,192.833 205.231 C 193.977 204.544,193.782 204.225,189.548 199.846 L 185.542 195.703 172.166 195.702 L 158.789 195.701 155.469 191.999 C 152.722 188.937,151.951 188.296,151.005 188.289 C 150.239 188.284,149.530 187.906,148.857 187.143 C 147.771 185.914,145.698 185.364,144.292 185.930 M147.056 188.266 C 147.999 189.308,147.578 190.922,146.278 191.249 C 145.011 191.567,144.141 190.824,144.141 189.425 C 144.141 187.636,145.866 186.950,147.056 188.266 M201.083 196.387 C 200.753 196.763,200.363 197.466,200.215 197.949 C 199.967 198.763,199.720 198.828,196.903 198.828 C 193.866 198.828,193.859 198.831,194.045 199.805 C 194.224 200.741,194.350 200.781,197.106 200.781 C 199.877 200.781,200.001 200.821,200.561 201.906 C 201.554 203.826,206.029 204.325,207.204 202.647 C 207.906 201.646,208.038 197.636,207.408 196.459 C 206.842 195.401,201.997 195.346,201.083 196.387 M205.391 198.125 C 206.520 199.254,205.688 201.563,204.152 201.563 C 203.232 201.563,201.953 200.490,201.953 199.718 C 201.953 197.954,204.185 196.919,205.391 198.125 M155.009 201.855 C 153.711 203.254,153.433 204.515,154.081 206.065 C 155.310 209.008,158.601 209.524,160.859 207.129 L 162.241 205.664 172.679 205.589 L 183.118 205.514 186.119 208.812 C 189.098 212.084,189.136 212.109,191.019 212.109 C 192.528 212.109,192.963 212.258,193.148 212.839 C 194.124 215.915,199.088 215.797,200.575 212.662 C 202.542 208.517,197.098 205.029,193.920 208.398 C 191.720 210.731,190.516 210.420,187.109 206.641 L 184.292 203.516 172.810 203.516 C 165.083 203.516,161.328 203.382,161.328 203.107 C 161.328 200.882,156.753 199.976,155.009 201.855 M159.198 203.685 C 159.934 204.807,159.478 206.041,158.176 206.454 C 156.555 206.968,155.109 204.423,156.328 203.203 C 157.106 202.425,158.529 202.664,159.198 203.685 M198.228 209.750 C 199.192 210.815,198.750 212.407,197.395 212.747 C 195.395 213.249,194.164 211.251,195.537 209.733 C 196.404 208.775,197.351 208.781,198.228 209.750 " stroke="none" fill="#65beeb" fill-rule="evenodd"></path><path id="path3" d="M192.578 121.502 C 139.633 128.046,109.266 182.340,132.070 229.688 C 159.509 286.658,242.195 286.541,269.739 229.492 C 295.332 176.482,250.898 114.294,192.578 121.502 M214.258 123.406 C 274.195 134.813,296.725 207.174,253.599 249.757 C 205.677 297.075,124.290 262.015,125.879 194.738 C 126.952 149.337,169.608 114.908,214.258 123.406 M166.193 150.491 C 166.089 150.762,166.054 156.694,166.113 163.675 L 166.222 176.367 166.314 163.382 L 166.406 150.398 186.230 150.293 L 206.055 150.188 186.218 150.094 C 170.572 150.020,166.342 150.104,166.193 150.491 M218.750 168.482 C 218.750 168.549,219.321 169.120,220.020 169.751 L 221.289 170.898 220.142 169.629 C 219.072 168.446,218.750 168.180,218.750 168.482 M190.527 176.064 C 191.226 176.150,192.368 176.150,193.066 176.064 C 193.765 175.977,193.193 175.906,191.797 175.906 C 190.400 175.906,189.829 175.977,190.527 176.064 M167.301 205.759 C 168.761 205.834,171.046 205.834,172.380 205.758 C 173.713 205.682,172.520 205.620,169.727 205.621 C 166.934 205.621,165.842 205.683,167.301 205.759 M179.004 205.753 C 179.810 205.838,181.128 205.838,181.934 205.753 C 182.739 205.669,182.080 205.600,180.469 205.600 C 178.857 205.600,178.198 205.669,179.004 205.753 M166.194 209.082 C 166.091 209.351,166.055 217.305,166.113 226.758 L 166.219 243.945 166.313 226.481 L 166.406 209.016 169.629 208.884 L 172.852 208.753 169.617 208.673 C 167.328 208.617,166.327 208.737,166.194 209.082 " stroke="none" fill="#bdc3c5" fill-rule="evenodd"></path><path id="path4" d="M193.457 121.363 C 193.833 121.461,194.448 121.461,194.824 121.363 C 195.200 121.265,194.893 121.184,194.141 121.184 C 193.389 121.184,193.081 121.265,193.457 121.363 M206.938 121.370 C 207.424 121.463,208.127 121.460,208.501 121.362 C 208.874 121.264,208.477 121.188,207.617 121.192 C 206.758 121.197,206.452 121.277,206.938 121.370 M195.612 122.549 C 196.315 122.636,197.369 122.634,197.956 122.545 C 198.543 122.456,197.969 122.384,196.680 122.387 C 195.391 122.389,194.910 122.462,195.612 122.549 M202.647 122.552 C 203.566 122.635,204.972 122.634,205.772 122.550 C 206.572 122.466,205.820 122.398,204.102 122.400 C 202.383 122.401,201.728 122.470,202.647 122.552 M209.082 122.926 C 209.458 123.024,210.073 123.024,210.449 122.926 C 210.825 122.827,210.518 122.747,209.766 122.747 C 209.014 122.747,208.706 122.827,209.082 122.926 M166.699 130.299 C 165.679 130.830,164.844 131.352,164.844 131.459 C 164.844 131.634,168.711 129.807,169.108 129.445 C 169.592 129.004,168.321 129.455,166.699 130.299 M254.688 143.164 C 255.854 144.346,256.897 145.313,257.005 145.313 C 257.112 145.313,256.245 144.346,255.078 143.164 C 253.911 141.982,252.868 141.016,252.761 141.016 C 252.654 141.016,253.521 141.982,254.688 143.164 M146.271 143.457 L 144.727 145.117 146.387 143.573 C 147.931 142.137,148.226 141.797,147.931 141.797 C 147.867 141.797,147.120 142.544,146.271 143.457 M253.711 144.141 C 254.987 145.430,256.118 146.484,256.226 146.484 C 256.333 146.484,255.377 145.430,254.102 144.141 C 252.826 142.852,251.694 141.797,251.587 141.797 C 251.480 141.797,252.435 142.852,253.711 144.141 M206.543 150.276 C 207.026 150.369,207.817 150.369,208.301 150.276 C 208.784 150.183,208.389 150.106,207.422 150.106 C 206.455 150.106,206.060 150.183,206.543 150.276 M170.020 176.463 C 172.114 176.533,175.542 176.533,177.637 176.463 C 179.731 176.393,178.018 176.335,173.828 176.335 C 169.639 176.335,167.925 176.393,170.020 176.463 M161.666 179.010 C 161.831 179.175,166.876 179.263,172.877 179.205 L 183.789 179.101 172.578 178.906 C 166.411 178.799,161.501 178.846,161.666 179.010 M238.380 179.883 C 238.384 180.742,238.464 181.048,238.558 180.562 C 238.651 180.076,238.647 179.373,238.550 178.999 C 238.452 178.626,238.375 179.023,238.380 179.883 M162.800 181.533 C 163.502 181.620,164.557 181.618,165.144 181.529 C 165.731 181.440,165.156 181.369,163.867 181.371 C 162.578 181.373,162.098 181.446,162.800 181.533 M171.387 181.542 C 173.804 181.610,177.759 181.610,180.176 181.542 C 182.593 181.473,180.615 181.417,175.781 181.417 C 170.947 181.417,168.970 181.473,171.387 181.542 M194.708 182.910 L 193.164 184.570 194.824 183.026 C 196.368 181.590,196.664 181.250,196.368 181.250 C 196.305 181.250,195.557 181.997,194.708 182.910 M238.380 183.398 C 238.384 184.258,238.464 184.563,238.558 184.077 C 238.651 183.592,238.647 182.888,238.550 182.515 C 238.452 182.142,238.375 182.539,238.380 183.398 M204.794 184.375 C 204.794 185.342,204.870 185.737,204.963 185.254 C 205.056 184.771,205.056 183.979,204.963 183.496 C 204.870 183.013,204.794 183.408,204.794 184.375 M213.037 187.305 C 213.038 189.668,213.102 190.584,213.180 189.341 C 213.257 188.098,213.257 186.164,213.178 185.044 C 213.099 183.924,213.036 184.941,213.037 187.305 M197.635 188.965 L 196.289 190.430 197.754 189.084 C 198.560 188.343,199.219 187.684,199.219 187.619 C 199.219 187.320,198.888 187.601,197.635 188.965 M276.653 188.672 C 276.653 189.424,276.734 189.731,276.832 189.355 C 276.930 188.979,276.930 188.364,276.832 187.988 C 276.734 187.612,276.653 187.920,276.653 188.672 M275.481 189.453 C 275.481 190.205,275.562 190.513,275.660 190.137 C 275.758 189.761,275.758 189.146,275.660 188.770 C 275.562 188.394,275.481 188.701,275.481 189.453 M125.872 190.234 C 125.872 190.986,125.952 191.294,126.051 190.918 C 126.149 190.542,126.149 189.927,126.051 189.551 C 125.952 189.175,125.872 189.482,125.872 190.234 M124.336 192.969 C 124.336 194.150,124.409 194.634,124.499 194.043 C 124.588 193.452,124.588 192.485,124.499 191.895 C 124.409 191.304,124.336 191.787,124.336 192.969 M277.081 193.945 C 277.083 195.449,277.154 196.017,277.238 195.206 C 277.323 194.396,277.321 193.165,277.235 192.472 C 277.149 191.778,277.080 192.441,277.081 193.945 M173.730 192.871 C 177.651 192.934,184.067 192.934,187.988 192.871 C 191.909 192.807,188.701 192.755,180.859 192.755 C 173.018 192.755,169.810 192.807,173.730 192.871 M275.924 197.070 C 275.925 199.219,275.991 200.048,276.070 198.913 C 276.149 197.778,276.148 196.020,276.068 195.006 C 275.988 193.993,275.923 194.922,275.924 197.070 M124.340 199.805 C 124.342 201.094,124.415 201.574,124.502 200.872 C 124.589 200.170,124.587 199.115,124.498 198.528 C 124.409 197.941,124.338 198.516,124.340 199.805 M277.078 200.391 C 277.078 201.787,277.149 202.358,277.236 201.660 C 277.322 200.962,277.322 199.819,277.236 199.121 C 277.149 198.423,277.078 198.994,277.078 200.391 M196.973 198.717 C 197.563 198.807,198.530 198.807,199.121 198.717 C 199.712 198.628,199.229 198.555,198.047 198.555 C 196.865 198.555,196.382 198.628,196.973 198.717 M194.922 201.022 C 197.215 201.314,200.304 201.344,200.136 201.074 C 200.036 200.913,198.602 200.808,196.950 200.840 C 195.297 200.872,194.385 200.954,194.922 201.022 M125.880 202.930 C 125.884 203.789,125.964 204.095,126.058 203.609 C 126.151 203.123,126.147 202.420,126.050 202.046 C 125.952 201.673,125.875 202.070,125.880 202.930 M230.057 204.199 L 228.711 205.664 230.176 204.318 C 231.539 203.065,231.820 202.734,231.522 202.734 C 231.457 202.734,230.797 203.394,230.057 204.199 M170.429 244.041 C 172.320 244.113,175.308 244.113,177.070 244.040 C 178.832 243.968,177.285 243.909,173.633 243.910 C 169.980 243.910,168.539 243.969,170.429 244.041 M227.246 244.042 C 229.663 244.110,233.618 244.110,236.035 244.042 C 238.452 243.973,236.475 243.917,231.641 243.917 C 226.807 243.917,224.829 243.973,227.246 244.042 M144.922 246.680 C 145.651 247.432,146.335 248.047,146.442 248.047 C 146.550 248.047,146.041 247.432,145.313 246.680 C 144.584 245.928,143.899 245.313,143.792 245.313 C 143.685 245.313,144.193 245.928,144.922 246.680 M143.555 247.266 C 144.394 248.125,145.168 248.828,145.276 248.828 C 145.383 248.828,144.784 248.125,143.945 247.266 C 143.106 246.406,142.332 245.703,142.224 245.703 C 142.117 245.703,142.716 246.406,143.555 247.266 M254.674 250.684 L 252.539 252.930 254.785 250.795 C 256.872 248.811,257.210 248.438,256.920 248.438 C 256.859 248.438,255.848 249.448,254.674 250.684 M149.414 251.172 C 150.253 252.031,151.028 252.734,151.135 252.734 C 151.243 252.734,150.644 252.031,149.805 251.172 C 148.966 250.312,148.191 249.609,148.084 249.609 C 147.976 249.609,148.575 250.312,149.414 251.172 M148.438 252.075 C 148.438 252.143,149.009 252.714,149.707 253.345 L 150.977 254.492 149.829 253.223 C 148.760 252.039,148.438 251.774,148.438 252.075 M235.156 264.453 C 233.975 265.077,233.145 265.596,233.314 265.607 C 233.729 265.632,237.500 263.707,237.500 263.470 C 237.500 263.209,237.554 263.186,235.156 264.453 M164.844 263.863 C 164.844 264.131,167.236 265.317,167.414 265.138 C 167.499 265.053,166.955 264.691,166.206 264.334 C 165.457 263.977,164.844 263.765,164.844 263.863 M191.113 270.972 C 191.489 271.071,192.104 271.071,192.480 270.972 C 192.856 270.874,192.549 270.794,191.797 270.794 C 191.045 270.794,190.737 270.874,191.113 270.972 M209.082 270.972 C 209.458 271.071,210.073 271.071,210.449 270.972 C 210.825 270.874,210.518 270.794,209.766 270.794 C 209.014 270.794,208.706 270.874,209.082 270.972 M195.206 271.376 C 195.900 271.462,197.130 271.463,197.941 271.379 C 198.751 271.294,198.184 271.224,196.680 271.222 C 195.176 271.220,194.513 271.289,195.206 271.376 M203.809 271.376 C 204.507 271.463,205.649 271.463,206.348 271.376 C 207.046 271.290,206.475 271.219,205.078 271.219 C 203.682 271.219,203.110 271.290,203.809 271.376 M210.254 272.144 C 210.630 272.243,211.245 272.243,211.621 272.144 C 211.997 272.046,211.689 271.966,210.938 271.966 C 210.186 271.966,209.878 272.046,210.254 272.144 M193.457 272.545 C 194.048 272.635,195.015 272.635,195.605 272.545 C 196.196 272.456,195.713 272.383,194.531 272.383 C 193.350 272.383,192.866 272.456,193.457 272.545 M205.769 272.549 C 206.471 272.636,207.525 272.634,208.112 272.545 C 208.699 272.456,208.125 272.384,206.836 272.387 C 205.547 272.389,205.067 272.462,205.769 272.549 " stroke="none" fill="#cccccc" fill-rule="evenodd"></path></g></svg>